<?xml version="1.0" standalone="no"?><!DOCTYPE svg PUBLIC "-//W3C//DTD SVG 1.1//EN" "http://www.w3.org/Graphics/SVG/1.1/DTD/svg11.dtd"><svg t="1557564533433" class="icon" style="" viewBox="0 0 1024 1024" version="1.1" xmlns="http://www.w3.org/2000/svg" p-id="8147" xmlns:xlink="http://www.w3.org/1999/xlink" width="200" height="200"><defs><style type="text/css"></style></defs><path d="M911 548c-19.9 0-36-16.1-36-36 0-97-37.8-188.1-106.3-256.7S609 149 512 149c-19.9 0-36-16.1-36-36s16.1-36 36-36c58.7 0 115.7 11.5 169.3 34.2 51.8 21.9 98.3 53.3 138.3 93.2 39.9 39.9 71.3 86.5 93.2 138.3C935.5 396.3 947 453.3 947 512c0 19.9-16.1 36-36 36z" p-id="8148" fill="#1296db"></path></svg>